# xmcd
#
# Track frame offsets:
#	150
#	18081
#	39218
#	53423
#	70022
#	90257
#	106102
#	122576
#	140103
#	153568
#	168964
#	185612
#	207938
#	230050
#	247230
#	262023
#
# Disc length: 3737 seconds
#
# Revision: 1
# Processed by: cddbd v1.5.2PL0 Copyright (c) Steve Scherf et al.
# Submitted via: audiograbber 1.83.01
#
DISCID=d20e9710
DTITLE=Diversen - Nederpop top 50
DYEAR=1900
DGENRE=
TTITLE0=Trijntje Oosterhuis - Vlieg met me mee
TTITLE1=De Poema's - Zij maakt het verschil
TTITLE2=Abel  - Onderweg
TTITLE3=Alain Clark - Heerlijk
TTITLE4=Alderliefste and Paul de Leeuw - Een mooi verhaal
TTITLE5=Klein Orkest - Over de muur
TTITLE6=Herman Brood and Hennie Vrienten - Als je wint heb je vrienden
TTITLE7=Xander de Buisonje - Waarom
TTITLE8=Bloem - Even aan mijn moeder vragen
TTITLE9=Drukwerk - Je loog tegen mij
TTITLE10=Armand - Ben ik te min
TTITLE11=Clouseau - Passie
TTITLE12=Is Ook Schitterend - Voltooid verleden tijd
TTITLE13=Memories Band - Jij en ik
TTITLE14=Tim Immers - Liever dan lief
TTITLE15=Skik - Op fietse
EXTD=
EXTT0=
EXTT1=
EXTT2=
EXTT3=
EXTT4=
EXTT5=
EXTT6=
EXTT7=
EXTT8=
EXTT9=
EXTT10=
EXTT11=
EXTT12=
EXTT13=
EXTT14=
EXTT15=
PLAYORDER=
